<?xml version="1.0" encoding="iso-8859-1"?>
<!-- Generator: Adobe Illustrator 16.0.0, SVG Export Plug-In . SVG Version: 6.00 Build 0)  -->
<!DOCTYPE svg PUBLIC "-//W3C//DTD SVG 1.1//EN" "http://www.w3.org/Graphics/SVG/1.1/DTD/svg11.dtd">
<svg version="1.1" xmlns="http://www.w3.org/2000/svg" xmlns:xlink="http://www.w3.org/1999/xlink" x="0px" y="0px"
	 width="30.851px" height="26.444px" viewBox="0 0 30.851 26.444" style="enable-background:new 0 0 30.851 26.444;"
	 xml:space="preserve">
<g id="c43_terminal">
	<path style="fill:#000000;" d="M28.645,0H2.204C0.987,0,0,0.985,0,2.202V24.24c0,1.216,0.987,2.204,2.204,2.204h26.441
		c1.215,0,2.206-0.988,2.206-2.204V2.202C30.851,0.985,29.859,0,28.645,0z M7.162,1.654c0.607,0,1.102,0.491,1.102,1.103
		c0,0.607-0.494,1.098-1.102,1.098c-0.611,0-1.104-0.49-1.104-1.098C6.059,2.146,6.551,1.654,7.162,1.654z M3.855,1.654
		c0.608,0,1.102,0.491,1.102,1.103c0,0.607-0.493,1.098-1.102,1.098c-0.609,0-1.103-0.49-1.103-1.098
		C2.753,2.146,3.246,1.654,3.855,1.654z M28.645,24.24H2.204V5.532h26.441V24.24z"/>
	<polygon style="fill:#000000;" points="12.351,10.061 5.275,6.825 5.275,8.386 10.746,10.725 10.746,10.755 5.275,13.091 
		5.275,14.651 12.351,11.415 	"/>
	<rect x="15.682" y="9.995" style="fill:#000000;" width="3.855" height="1.486"/>
</g>
<g id="Capa_1">
</g>
</svg>
