<?xml version="1.0" encoding="utf-8"?>
<!-- Generator: Adobe Illustrator 15.0.0, SVG Export Plug-In . SVG Version: 6.00 Build 0)  -->
<!DOCTYPE svg PUBLIC "-//W3C//DTD SVG 1.1//EN" "http://www.w3.org/Graphics/SVG/1.1/DTD/svg11.dtd">
<svg version="1.1" id="Layer_1" xmlns="http://www.w3.org/2000/svg" xmlns:xlink="http://www.w3.org/1999/xlink" x="0px" y="0px"
	 width="26px" height="26px" viewBox="0 0 26 26" enable-background="new 0 0 26 26" xml:space="preserve">
<g>
	<g>
		<g>
			<path d="M2.1,11.566c0-0.001,0-0.003,0-0.006C2.088,11.649,2.083,11.684,2.1,11.566z"/>
			<polygon points="2.1,11.56 2.1,11.561 2.101,11.559 			"/>
			<path d="M23.725,10.707c-0.098,0.75-0.205,1.136-0.313,1.162c0,0-0.038-4.012-1.369-5.343c0.227,2.34,0.003,1.397,0.003,1.408
				c-1.806-3.115-5.176-5.217-9.028-5.217C9.8,2.716,6.92,4.18,5.004,6.474C4.989,6.461,4.972,6.445,4.952,6.426
				c-0.3-0.274-0.472-1.59-0.472-1.59C4.479,4.831,4.477,4.827,4.477,4.823c0-0.004-0.002-0.008-0.002-0.014
				c0-0.002,0-0.005-0.002-0.008C4.47,4.803,4.469,4.807,4.465,4.809C4.461,4.814,4.459,4.817,4.455,4.821
				C4.451,4.824,4.449,4.83,4.445,4.833C4.441,4.837,4.438,4.842,4.434,4.845c-0.002,0.004-0.006,0.009-0.01,0.012
				C4.42,4.861,4.417,4.866,4.414,4.869C4.41,4.873,4.407,4.878,4.402,4.881c-0.003,0.005-0.007,0.008-0.01,0.012
				C4.389,4.898,4.385,4.902,4.381,4.906C4.378,4.91,4.375,4.914,4.371,4.918C4.368,4.922,4.364,4.926,4.361,4.93
				C4.357,4.934,4.354,4.938,4.35,4.942C4.347,4.947,4.344,4.95,4.339,4.955c0,0-0.56,0.736-0.758,1.537
				C3.449,7.127,3.579,6.5,3.577,6.503C3.576,6.507,3.576,6.513,3.575,6.517C3.574,6.521,3.573,6.525,3.572,6.529
				c-0.001,0-0.001,0-0.001,0C3.405,7.188,3.324,7.973,3.334,8.893C3.327,8.901,3.319,8.907,3.313,8.915c0,0-0.986,1.069-1.15,2.214
				c-0.032,0.227-0.052,0.363-0.063,0.437c0,0.002,0,0.005,0,0.006c-0.002,0.034-0.006,0.068-0.007,0.102
				c0.003-0.005,0.007-0.01,0.01-0.015c0.002,0.086,0.011,0.171,0.033,0.249l0.592-0.482c-0.008,0.057-0.02,0.112-0.028,0.17
				c-0.188,0.521-0.322,1.065-0.389,1.643c-0.194,1.754,0.184,3.493,1.121,5.213c0,0,0.376,0.676,0.605,0.997
				c0.029,0.046,0.055,0.091,0.087,0.137l0.007,0.001c1.958,2.673,5.098,4.406,8.639,4.406c3.134,0,5.95-1.357,7.914-3.52
				l0.038,0.001c0.13-0.159,0.249-0.321,0.372-0.482c0.327-0.405,0.629-0.833,0.897-1.283l-0.025,0.002
				c0.84-1.378,1.391-2.798,1.641-4.264C23.967,13.002,24.007,11.755,23.725,10.707z M4.991,6.491
				C4.988,6.487,4.986,6.484,4.984,6.48c-0.003-0.004-0.006-0.01-0.008-0.014C4.972,6.462,4.97,6.458,4.967,6.454
				C4.965,6.449,4.962,6.444,4.96,6.439c0,0,0.019,0.017,0.042,0.037C4.999,6.482,4.995,6.486,4.991,6.491z M20.717,10.23
				c-0.222-0.345-0.515-0.571-0.889-0.684c0.463,1.798,0.509,3.282,0.134,4.452c-0.257-0.78-0.493-1.248-0.704-1.412
				c0.293,2.408-0.104,4.19-1.187,5.351c0.206-0.708,0.288-1.289,0.241-1.746c-1.273,1.906-2.723,2.892-4.344,2.954
				c-0.643-0.007-1.248-0.104-1.818-0.288c-0.011,0-0.024-0.002-0.035-0.002c-0.056-0.018-0.111-0.039-0.166-0.06
				c0,0,0,0-0.001-0.001c-0.048-0.018-0.096-0.036-0.143-0.057c-0.047-0.02-0.093-0.04-0.139-0.062
				c-0.045-0.021-0.091-0.039-0.137-0.062c-0.043-0.021-0.086-0.045-0.13-0.067c-0.043-0.021-0.088-0.043-0.129-0.065
				c-0.042-0.022-0.082-0.048-0.122-0.072c-0.042-0.023-0.083-0.047-0.122-0.072c-0.041-0.023-0.079-0.048-0.118-0.074
				c-0.039-0.024-0.076-0.051-0.114-0.077s-0.076-0.051-0.114-0.077c-0.036-0.027-0.071-0.055-0.107-0.082
				c-0.035-0.027-0.072-0.054-0.106-0.082c-0.036-0.028-0.07-0.056-0.104-0.085c-0.034-0.027-0.067-0.058-0.101-0.086
				c-0.033-0.028-0.067-0.056-0.1-0.087c-0.032-0.028-0.063-0.06-0.095-0.09c-0.032-0.028-0.064-0.059-0.094-0.089
				c-0.025-0.024-0.05-0.047-0.074-0.071c0.01,0.002,0.02,0.002,0.03,0.002c0.025,0.002,0.049,0.003,0.074,0.005
				c0.023,0.001,0.048,0.002,0.074,0.003c0.024,0.002,0.048,0.003,0.072,0.004c0.026,0.002,0.05,0.004,0.073,0.004
				c0.026,0.001,0.05,0.004,0.074,0.004c0.026,0,0.052-0.002,0.077,0c0.025,0,0.05-0.003,0.076-0.003c0.025,0,0.05,0,0.076,0
				c0.024-0.001,0.05,0,0.076-0.001c0.025-0.001,0.05-0.001,0.075-0.002c0.027-0.002,0.053-0.004,0.078-0.006
				c0.026-0.002,0.054-0.005,0.08-0.006c0.025-0.002,0.051-0.004,0.076-0.007c0.027-0.002,0.053-0.003,0.079-0.005
				c0.027-0.004,0.053-0.006,0.08-0.009c0.027-0.003,0.054-0.009,0.081-0.013c0.026-0.004,0.053-0.007,0.08-0.012
				c0.027-0.003,0.053-0.008,0.08-0.011c0.027-0.005,0.055-0.008,0.081-0.013c0.028-0.005,0.056-0.012,0.083-0.018
				c0.027-0.005,0.055-0.013,0.083-0.018c0.029-0.007,0.057-0.013,0.084-0.02c0.028-0.006,0.057-0.011,0.083-0.018
				c0.029-0.008,0.057-0.015,0.086-0.023c0.027-0.008,0.058-0.018,0.086-0.026c0.03-0.008,0.059-0.016,0.088-0.025
				c0.028-0.009,0.058-0.016,0.086-0.025c0.03-0.01,0.06-0.021,0.089-0.031c0.03-0.012,0.062-0.022,0.091-0.034
				c0.03-0.011,0.061-0.023,0.091-0.034c0.029-0.012,0.06-0.021,0.09-0.034c0.032-0.015,0.063-0.029,0.094-0.044
				c0.032-0.014,0.063-0.029,0.096-0.044c0.032-0.015,0.063-0.028,0.095-0.043c0.014-0.008,0.03-0.013,0.043-0.021l0.059-0.038
				l0.106-0.069l0.106-0.068l0.107-0.069l0.107-0.069l0.106-0.068l0.106-0.069l0.107-0.068l0.106-0.069l0.105-0.069l0.107-0.069
				l0.106-0.068l0.106-0.069l0.049-0.031l-0.004-0.005c0.18-0.067,0.35-0.063,0.514,0.015c0.338-0.047,0.457-0.227,0.344-0.529
				c-0.164-0.226-0.412-0.431-0.729-0.61c-0.694-0.361-1.417-0.304-2.173,0.174c-0.718,0.405-1.411,0.39-2.084-0.041
				c-0.442-0.303-0.869-0.709-1.278-1.218l-0.165-0.24c-0.002,0.009-0.002,0.02-0.002,0.029c0-0.01,0-0.021,0.002-0.031v-0.005
				c0-0.007,0.001-0.013,0.001-0.021c0.003-0.058,0.008-0.114,0.017-0.165c0.01-0.066,0.027-0.127,0.046-0.185
				c0.031-0.095,0.077-0.176,0.133-0.243c0.076-0.089,0.171-0.154,0.29-0.194c0.045-0.014,0.093-0.025,0.143-0.033
				c-0.029-0.003-0.053-0.004-0.081-0.007c-0.076-0.006-0.142-0.013-0.204-0.018c-0.079-0.007-0.15-0.013-0.204-0.017
				c-0.04-0.003-0.074-0.005-0.101-0.006c-0.037-0.003-0.073-0.004-0.109-0.007c-0.058-0.002-0.113-0.006-0.169-0.01
				c-0.016,0-0.026-0.002-0.042-0.003c-0.064-0.004-0.119-0.009-0.166-0.016c0.063,0,0.127-0.001,0.189,0
				c0.092,0.005,0.184,0.01,0.277,0.016c0.104,0.005,0.303,0.021,0.589,0.046c0.454,0.042,0.973,0.145,1.557,0.313
				c0.098-0.56-0.031-1.146-0.385-1.746c0-0.006,0-0.01,0-0.01c-0.031-0.07-0.075-0.136-0.129-0.2
				c0.021,0.021,0.041,0.042,0.057,0.064c0.028,0.038,0.049,0.076,0.07,0.116c0.007,0.014,0.017,0.026,0.022,0.04
				c0.016-0.015,0.031-0.026,0.047-0.041c0.023-0.021,0.045-0.041,0.069-0.062c0.024-0.021,0.046-0.041,0.07-0.061
				c0.023-0.021,0.047-0.042,0.07-0.062c0.022-0.021,0.046-0.042,0.068-0.063c0.023-0.019,0.046-0.041,0.069-0.062
				c0.024-0.02,0.046-0.036,0.07-0.057c0.023-0.02,0.046-0.037,0.07-0.055c0.023-0.02,0.046-0.038,0.069-0.057
				c0.022-0.019,0.046-0.038,0.068-0.056c0.023-0.018,0.049-0.039,0.07-0.056c0.023-0.019,0.047-0.036,0.07-0.054
				c0.024-0.018,0.046-0.032,0.069-0.05c0.024-0.018,0.047-0.033,0.069-0.05c0.023-0.017,0.047-0.034,0.071-0.051
				c0.023-0.016,0.046-0.034,0.069-0.048c0.023-0.017,0.047-0.033,0.069-0.048c0.025-0.016,0.046-0.029,0.07-0.044
				c0.024-0.014,0.046-0.028,0.07-0.043c0.023-0.013,0.046-0.028,0.069-0.043c0.023-0.014,0.047-0.03,0.069-0.043
				c0.006-0.003,0.013-0.007,0.018-0.011c0.019-0.011,0.034-0.023,0.053-0.035c0.023-0.015,0.048-0.029,0.069-0.046
				c0.027-0.022,0.048-0.047,0.07-0.073c0.027-0.032,0.049-0.066,0.069-0.104c0.03-0.057,0.055-0.118,0.069-0.189
				c0.005-0.005,0.009-0.01,0.015-0.01l0.005-0.005c0.005-0.005,0.015-0.015,0.02-0.02c0.108-0.159,0.072-0.288-0.113-0.4
				c-0.383,0.019-1.151-0.067-1.16-0.068c-0.005-0.002-0.01-0.004-0.015-0.006c-0.91-0.38-1.413-1.18-1.413-1.18
				c0,0.005-0.021-0.023-0.021-0.023L9.44,7.96c0.002-0.002,0.002-0.003,0.005-0.004C9.45,7.953,9.452,7.951,9.457,7.948
				C9.46,7.946,9.463,7.943,9.467,7.941c0.002-0.002,0.006-0.005,0.01-0.008s0.008-0.005,0.011-0.008c0,0,0.002,0,0.002,0
				c0-0.004,0.002-0.007,0.002-0.009c0.001-0.003,0.002-0.008,0.002-0.011c0-0.004,0.001-0.008,0.003-0.012
				c0-0.003-0.015,0.014,0.002-0.011c-0.172-1.391,1.655-2.306,1.655-2.306S8.957,6.191,8.273,6.989L8.172,6.996l0.091,0.002
				C8.261,7,8.258,7.002,8.254,7.004C8.251,7.008,8.249,7.01,8.246,7.014C8.242,7.017,8.24,7.02,8.236,7.022
				c0,0-0.003,0.002-0.004,0.003C8.228,7.023,8.222,7.022,8.217,7.02C8.203,7.016,8.19,7.012,8.176,7.008
				C6.85,6.688,5.763,7.167,5.763,7.167C5.755,7.168,5.748,7.171,5.742,7.173C5.733,7.176,5.727,7.179,5.721,7.181
				C5.712,7.184,5.706,7.186,5.699,7.188C5.692,7.191,5.686,7.193,5.68,7.195C5.487,7.102,5.315,6.952,5.163,6.753
				c1.859-2.279,4.688-3.737,7.854-3.737c2.447,0,4.694,0.872,6.447,2.323C19.186,5.2,18.89,5.081,18.573,4.985
				c-0.892-0.266-1.956-0.42-3.183-0.456c0.538,0.107,0.996,0.242,1.364,0.41c0.022,0.006,0.045,0.016,0.066,0.021
				c0.521,0.247,0.87,0.556,1.034,0.92c-0.528-0.097-1.007-0.061-1.428,0.103C19.447,7.174,20.88,8.591,20.717,10.23z"/>
			<path d="M2.153,11.172c-0.027,0.128-0.041,0.25-0.049,0.367c0.02-0.146,0.055-0.392,0.055-0.388
				C2.156,11.158,2.154,11.165,2.153,11.172z"/>
			<path d="M2.104,11.539c0,0.007-0.002,0.013-0.003,0.02c0-0.001,0-0.001,0-0.002C2.101,11.551,2.103,11.545,2.104,11.539z"/>
		</g>
		<path d="M8.172,6.996"/>
	</g>
</g>
</svg>
